<svg height="48" width="48" xmlns:xlink="http://www.w3.org/1999/xlink" xmlns="http://www.w3.org/2000/svg" version="1.1"><defs><linearGradient id="color-1" gradientUnits="userSpaceOnUse" y2="52.31874" x2="54.98331" y1="16.89446" x1="14.22989"><stop stop-opacity="0.3" stop-color="#000000" offset="0"></stop><stop stop-opacity="0" stop-color="#000000" offset="1"></stop></linearGradient><filter id="dropshadow-base"><feColorMatrix type="matrix" values="0 0 0 0 0  0 0 0 0 0  0 0 0 0 0  0 0 0 .8 0"></feColorMatrix> <feOffset dx="0" dy="1"></feOffset> <feGaussianBlur stdDeviation="1"></feGaussianBlur> <feComposite in="SourceGraphic"></feComposite></filter><filter height="130%" width="120%" y="-10%" x="-10%" id="dropshadow-banner"><feColorMatrix type="matrix" values="0 0 0 0 0  0 0 0 0 0  0 0 0 0 0  0 0 0 .4 0"></feColorMatrix> <feOffset dx="0" dy="1"></feOffset> <feGaussianBlur stdDeviation="0.5"></feGaussianBlur> <feComposite in="SourceGraphic"></feComposite></filter></defs><g style="mix-blend-mode: normal" text-anchor="none" font-size="none" font-weight="none" font-family="none" stroke-dashoffset="0" stroke-dasharray="" stroke-miterlimit="10" stroke-linejoin="miter" stroke-linecap="butt" stroke-width="none" stroke="none" fill-rule="nonzero" fill="none"><path stroke-width="1" fill="#4caf50" id="base 1 5" d="M2,24c0,-12.15026 9.84974,-22 22,-22c12.15026,0 22,9.84974 22,22c0,12.15026 -9.84974,22 -22,22c-12.15026,0 -22,-9.84974 -22,-22z"></path><path stroke-width="1" fill="url(#color-1)" d="M26.3598,18.97563l5.60282,5.60282c0.02055,-0.18999 0.0311,-0.38299 0.0311,-0.57845c0,-0.61893 -0.10573,-1.21317 -0.30013,-1.76564l-3.25264,-3.25264v-1.85632c1.25067,0.32264 2.36818,0.97522 3.25289,1.85993l12.86443,12.86443c-2.23006,5.83699 -6.87452,10.48074 -12.71199,12.70984l-15.53523,-15.53523c-1.28585,-1.28585 -2.08116,-3.06223 -2.08116,-5.02437c0,-3.92428 3.18126,-7.10554 7.10554,-7.10554c1.96214,0 3.73852,0.79531 5.02437,2.08116z"></path><path stroke-width="0" fill="none" d="M14.22989,24c0,-3.92428 3.18126,-7.10553 7.10553,-7.10553c3.92428,0 7.10553,3.18126 7.10553,7.10553c0,3.92428 -3.18126,7.10553 -7.10553,7.10553c-3.92428,0 -7.10553,-3.18126 -7.10553,-7.10553zM33.77011,24c0,3.31296 -2.26489,6.08411 -5.32915,6.8746v-1.85632c2.06949,-0.72832 3.55277,-2.7001 3.55277,-5.01828c0,-2.31818 -1.48328,-4.28997 -3.55277,-5.01828v-1.85632c3.06426,0.79049 5.32915,3.56165 5.32915,6.8746z"></path><path stroke-width="0" fill="#ff1744" d="M14.22989,24c0,-3.92428 3.18126,-7.10553 7.10553,-7.10553c3.92428,0 7.10553,3.18126 7.10553,7.10553c0,3.92428 -3.18126,7.10553 -7.10553,7.10553c-3.92428,0 -7.10553,-3.18126 -7.10553,-7.10553zM33.77011,24c0,3.31296 -2.26489,6.08411 -5.32915,6.8746v-1.85632c2.06949,-0.72832 3.55277,-2.7001 3.55277,-5.01828c0,-2.31818 -1.48328,-4.28997 -3.55277,-5.01828v-1.85632c3.06426,0.79049 5.32915,3.56165 5.32915,6.8746z"></path><path stroke-width="1" fill="none" id="base 1 1 1" d="M2,24c0,-12.15026 9.84974,-22 22,-22c12.15026,0 22,9.84974 22,22c0,12.15026 -9.84974,22 -22,22c-12.15026,0 -22,-9.84974 -22,-22z"></path><g text-anchor="start" font-size="14" font-weight="400" font-family="Roboto,sans-serif" stroke-width="1" fill="#000000"></g><rect stroke-width="1" fill="none" height="22" width="44" y="2" x="2"></rect><path stroke-width="1" fill="none" d="M2,24v-22h44v22z"></path><path stroke-width="1" fill="none" d="M2,24v-22h44v22z"></path><path stroke-width="1" fill="none" d="M2,24v-22h44v22z"></path><path stroke-width="1" fill="none" d="M2,24v-22h44v22z"></path></g></svg>